# xmcd CD database file
#
# Track frame offsets:
#	150
#	13880
#	25325
#	38865
#	52687
#	62017
#	77337
#	91245
#	104110
#	117085
#	130150
#	148082
#	160807
#	172605
#	186350
#
# Disc length: 2701 seconds
#
# Revision: 4
# Processed by: cddbd v1.5.2PL0 Copyright (c) Steve Scherf et al.
# Submitted via: CDex 1.70beta2
#
DISCID=bc0a8b0f
DTITLE=Various Artist - Classic Country Great Story Songs [CD1]
DYEAR=2001
DGENRE=Country
TTITLE0=Jimmy Dean - Big Bad John
TTITLE1=Johnny Horton - The Battle Of New Orleans
TTITLE2=Claude King - Wolverton Mountain
TTITLE3=Tom T. Hall - A Week In A Country Jail
TTITLE4=Lester Flatt and Earl Scruggs - The Ballad of Jed Clampett
TTITLE5=Jim Reeves - The Blizzard
TTITLE6=Lefty Frizzell - Saginaw, Michigan
TTITLE7=Porter Wagoner - The Carroll County Accident
TTITLE8=Billy Walker - Cross The Brazos At Waco
TTITLE9=Bobby Bare - Miller's Cave
TTITLE10=Marty Robbins - Big Iron
TTITLE11=Stonewall Jackson - B.J. The D.J.
TTITLE12=Johnny Horton - When It's Springtime In Alaska (It's Forty Below)
TTITLE13=Johnny Cash - Don't Take Your Guns To Town
TTITLE14=The Charlie Daniels Band - The Devil Went Down To Georgia
EXTD=YEAR: 2001
EXTT0=
EXTT1=
EXTT2=
EXTT3=
EXTT4=
EXTT5=
EXTT6=
EXTT7=
EXTT8=
EXTT9=
EXTT10=
EXTT11=
EXTT12=
EXTT13=
EXTT14=
PLAYORDER=
